<svg viewBox="0 0 64 64" xml:space="preserve" xmlns="http://www.w3.org/2000/svg"><path d="m62.981 20.549-3.557-3.571c-1.431-1.437-3.636-.265-3.636-.265l-.006-.004a6.318 6.318 0 0 1-6.91-1.367 6.319 6.319 0 0 1-1.337-6.923c.009-.022.009-.036.019-.059.83-2.196-.35-3.637-.698-4.001L43.282.771c-1.561-1.567-3.256-.142-3.671.257L1.035 39.45c-2.143 2.132-.376 3.835-.376 3.835l4.139 4.155s1.021 1.104 3.003.304c.063-.025.111-.036.166-.053 2.356-1.135 5.261-.744 7.21 1.212a6.32 6.32 0 0 1 1.359 6.882h.003s-1.204 2.235.244 3.688l3.625 3.64c.258.254 2.163 1.965 4.541-.401l38.329-38.173c.578-.673 1.48-2.206-.297-3.99zm-39.525 24.65-.329.326c-.369.368-.747.132-.939-.039l-4.249-4.267-1.07 1.067c-.542.541-1.005-.017-1.005-.017l-.142-.143s-.385-.346.201-.928l3.254-3.241s.512-.566 1-.078l.111.111c.365.388.137.738-.02.908L19.164 40l4.085 4.103c.507.508.364.89.207 1.096zm3.617-3.603-.266.265c-.414.413-.956-.063-1.088-.189l-4.487-4.507s-.619-.637-.111-1.141l.189-.188s.538-.501 1.278.243l4.405 4.422c.487.49.242.908.08 1.095zm5.474-5.723a5.86 5.86 0 0 1-1.097 1.52c-.84.837-1.736 1.221-2.688 1.154-.953-.064-1.904-.574-2.854-1.527-.597-.601-1.012-1.233-1.243-1.905-.231-.669-.262-1.326-.092-1.976s.529-1.246 1.079-1.795c.44-.438.992-.772 1.603-1.045.203-.033.577-.036.755.379l.069.162c.304.71-.546.947-.546.947l.001.003c-.035.017-.074.031-.11.047a2.661 2.661 0 0 0-.757.527c-.461.457-.645.987-.553 1.585.092.597.446 1.204 1.062 1.823 1.282 1.286 2.408 1.45 3.374.487.281-.278.553-.686.82-1.146l.02.006s.352-.607.683-.276l.205.207c.347.321.326.631.269.823zm5.841-5.547-.585.583c-.364.362-.936.226-.936.226l-3.362-.792-.146.886 1.388 1.394c.498.499.387.884.23 1.104l-.303.298c-.426.427-.907.054-1.088-.119l-4.517-4.535s-.636-.632-.177-1.087l.282-.281c.177-.148.598-.374 1.151.181l1.968 1.976-.196-1.16-.34-3.06s-.053-.457.294-.803l.458-.457s.555-.56.647.245c0 0 .002 0 .002.003l.438 3.76 4.53 1.037c.242.066.627.236.262.601zm4.14-3.996-2.213 2.205c-.576.574-1.113.137-1.266-.011l-4.468-4.484s-.555-.744.029-1.327l2.164-2.154s.456-.51.833-.131l.173.172s.531.427-.007.962l-1.179 1.173c-.451.451-.003.875-.003.875l.348.346s.471.493 1.007-.042l.948-.945s.471-.485.833-.123l.141.142c.396.432.219.767.084.925l-.912.909c-.571.568-.249.989-.147 1.095l.624.627c.188.147.495.276.822-.05l1.164-1.16s.478-.516.791-.203l.198.198c.421.435.195.819.036 1.001zm3.176-3.289-.192.189c-.381.379-.85-.017-1.002-.165l-3.625-3.639c-.47-.471-.875-.18-1.016-.049l-.657.656c-.458.457-.886-.039-.886-.039l-.174-.176s-.382-.38.076-.837l3.369-3.354c.203-.183.612-.456.963-.104l.109.111c.389.41.165.772.024.931l-.678.674c-.091.095-.389.482.156 1.031l3.564 3.579c.197.222.478.693-.031 1.192z" fill="#ffffff" class="fill-241f20"></path></svg>